<svg version="1.1" id="Layer_1" xmlns="http://www.w3.org/2000/svg" xmlns:xlink="http://www.w3.org/1999/xlink" x="0px" y="0px"
	 width="100%" viewBox="0 0 500 500" enable-background="new 0 0 500 500" xml:space="preserve">
<path fill="#000000" opacity="1.000000" stroke="none" 
	d="
M336.000000,501.000000 
	C224.000031,501.000000 112.500053,501.000000 1.000060,501.000000 
	C1.000040,334.333405 1.000040,167.666794 1.000020,1.000149 
	C167.666565,1.000100 334.333130,1.000100 500.999756,1.000050 
	C500.999847,167.666519 500.999847,334.333038 500.999939,500.999786 
	C446.166656,501.000000 391.333344,501.000000 336.000000,501.000000 
M269.081696,221.693192 
	C269.574249,221.467484 270.066803,221.241791 270.536194,220.987259 
	C270.536194,220.987259 270.506256,221.008972 270.995789,221.598694 
	C271.881805,221.415604 272.766296,221.081711 273.654114,221.072540 
	C283.428558,220.971588 293.203552,220.921158 303.667999,221.142380 
	C307.682800,221.096390 311.701050,220.922485 315.711700,221.030334 
	C324.805084,221.274841 333.894257,221.811279 342.986359,221.841080 
	C344.586761,221.846344 346.193268,219.967422 347.946259,218.062317 
	C347.895752,214.720367 347.845215,211.378433 347.950836,207.159607 
	C347.361603,206.787445 346.772400,206.090652 346.183167,206.090637 
	C331.791718,206.090012 317.400238,206.163467 302.087738,206.043900 
	C290.031403,206.029434 277.974915,205.983368 265.919006,206.048126 
	C264.678223,206.054779 263.440948,206.723190 261.914581,207.600098 
	C261.920410,209.096619 261.926208,210.593124 262.042664,212.752213 
	C262.124664,213.191727 262.206696,213.631241 262.107727,214.866394 
	C262.101227,216.497833 262.094696,218.129288 261.388336,220.143341 
	C263.920776,220.461746 266.453217,220.780136 268.976410,221.019516 
	C268.976410,221.019516 268.925507,221.080658 269.081696,221.693192 
M318.450165,185.902618 
	C320.959229,185.855301 323.468323,185.807968 326.910004,185.882339 
	C333.602173,185.832550 340.294312,185.782761 347.480103,185.833115 
	C347.589935,185.549622 347.699768,185.266113 347.976379,184.111206 
	C347.921082,181.748016 347.865753,179.384827 347.970551,176.288910 
	C347.292084,175.624847 346.613617,174.960770 345.019714,174.130096 
	C337.680542,174.096436 330.341400,174.062759 322.703705,173.188904 
	C311.441376,173.124756 300.179047,173.044357 288.916687,173.039154 
	C288.278076,173.038864 287.639221,173.655640 286.244019,174.063263 
	C285.488098,174.124893 284.732178,174.186523 283.502869,174.138306 
	C283.502869,174.138306 283.038391,174.281174 282.351105,174.163025 
	C281.890259,174.199280 281.429382,174.235550 280.502625,174.165833 
	C280.502625,174.165833 280.045776,174.305618 279.354492,174.185257 
	C278.889862,174.222977 278.425201,174.260681 277.499603,174.154053 
	C277.499603,174.154053 277.026917,174.253403 276.335144,174.122955 
	C275.871582,174.180496 275.408051,174.238052 274.393066,174.154724 
	C274.010803,174.443100 273.628571,174.731491 273.068695,175.909897 
	C273.424622,179.263412 273.780548,182.616913 274.193298,186.380692 
	C274.403564,186.240051 274.613831,186.099411 275.557404,185.859665 
	C276.047272,185.820145 276.537109,185.780640 277.497040,185.845032 
	C277.497040,185.845032 277.960693,185.715393 278.887207,185.854416 
	C283.291443,185.786392 287.695648,185.718384 292.886383,185.823471 
	C294.221588,185.767715 295.556763,185.711960 297.613342,185.796021 
	C298.099182,185.752625 298.584991,185.709229 299.679840,185.834900 
	C300.093109,185.777008 300.506378,185.719101 301.630005,185.789108 
	C302.106232,185.739349 302.582489,185.689590 303.498596,185.769730 
	C303.498596,185.769730 303.940002,185.645126 304.848022,185.808044 
	C307.924591,185.761139 311.001129,185.714233 314.800903,185.846573 
	C315.773926,185.817825 316.746948,185.789062 318.450165,185.902618 
M217.076660,221.021500 
	C217.076660,221.021500 217.010437,221.077637 217.853424,221.061203 
	C220.889893,221.061203 223.926361,221.061203 226.426743,221.061203 
	C227.056824,215.824738 227.581833,211.461655 228.994431,207.016098 
	C240.755310,207.078552 239.918442,207.690216 241.009384,196.032211 
	C243.928436,196.032211 246.847488,196.032211 249.954544,196.032211 
	C249.954544,184.569885 249.954544,173.629059 250.003281,162.214233 
	C250.037964,161.888901 249.983582,161.579224 249.807755,160.354172 
	C238.977951,160.238693 228.148209,160.111969 217.318100,160.055359 
	C216.946396,160.053406 216.571030,160.754044 216.054688,162.002457 
	C216.088547,164.959518 216.122406,167.916565 215.722900,171.667801 
	C211.173355,171.667801 206.623810,171.667801 201.698364,171.667801 
	C201.698364,176.062927 201.698364,179.467010 201.698364,183.013367 
	C199.488770,183.013367 197.657150,182.863358 195.863113,183.058563 
	C194.291931,183.229523 192.762909,183.788239 191.080841,185.058319 
	C191.053360,188.335785 191.025879,191.613251 190.257065,195.308121 
	C186.629364,195.710052 183.001663,196.111984 179.938858,196.451324 
	C179.030823,200.063568 178.205154,203.348099 176.796539,206.235901 
	C176.188461,206.558655 175.580383,206.881409 174.195267,207.041061 
	C173.139603,206.993683 172.083954,206.946320 170.994217,205.988937 
	C170.994217,202.783707 170.994217,199.578461 170.994217,196.195480 
	C165.960129,196.195480 161.576065,196.195480 156.294403,196.205688 
	C156.206970,203.309021 156.119522,210.412354 156.029678,217.491898 
	C156.029678,217.491898 156.044037,217.472794 155.474854,217.935242 
	C155.663712,218.466003 155.852570,218.996750 156.048004,219.487991 
	C156.048004,219.487991 156.019073,219.460297 155.990005,220.250076 
	C156.390442,220.433701 156.790863,220.617325 158.063004,220.942566 
	C160.278015,220.942566 162.493027,220.942566 165.051971,220.942566 
	C165.051971,224.609192 165.051971,227.671173 164.288376,230.977600 
	C162.198776,232.205185 158.271454,233.523636 158.326920,234.645126 
	C158.620010,240.571609 155.040924,240.162521 151.215469,239.975739 
	C149.575073,239.895645 147.927521,239.962326 146.380249,239.962326 
	C146.380249,247.623444 146.299423,254.897934 146.478241,262.166046 
	C146.501709,263.119476 147.825150,264.821808 148.597763,264.851685 
	C154.469284,265.078888 160.353592,264.976044 165.918350,264.976044 
	C165.918350,261.968475 166.081436,259.731049 165.880905,257.526733 
	C165.563782,254.040787 166.982727,252.863007 170.449310,252.872009 
	C177.826813,252.891174 177.819748,252.736786 177.999298,245.378250 
	C178.019348,244.556381 178.182953,243.738007 179.178360,242.943375 
	C184.101593,242.887589 189.024811,242.831802 194.698288,243.208572 
	C194.817734,244.343979 195.171722,245.512802 195.015640,246.608978 
	C194.372711,251.123764 196.451065,252.380951 200.654709,252.064713 
	C205.075394,251.732117 209.533875,251.902008 214.856003,251.995987 
	C215.380600,247.739105 215.905197,243.482239 216.478058,238.833740 
	C211.682846,238.833740 207.959030,238.833740 203.980103,238.833740 
	C203.980103,236.085083 203.980103,233.650162 204.881866,231.001007 
	C206.368652,230.989029 207.855438,230.969086 209.342239,230.966415 
	C217.167496,230.952301 217.167496,230.953827 217.054276,222.456772 
	C217.079590,222.001114 217.104904,221.545471 217.076660,221.021500 
M215.949478,297.013733 
	C215.949478,297.013733 215.842560,297.206665 215.131256,297.512482 
	C210.786682,297.734283 206.442108,297.956116 202.620941,298.151215 
	C202.002289,302.234253 201.494019,305.588715 200.059937,308.967102 
	C199.730026,308.972595 199.400131,308.978577 199.070221,308.983521 
	C187.237213,309.160736 187.237213,309.160706 186.015564,320.977570 
	C183.445663,320.977570 180.875778,320.977570 177.737335,320.977570 
	C177.737335,317.208496 177.737335,313.963806 177.933762,309.859314 
	C177.933762,301.287079 177.933762,292.714844 177.933762,283.893341 
	C166.593719,283.893341 155.801041,283.893341 144.995605,283.008392 
	C144.995605,279.968048 144.995605,276.927673 144.995605,273.897614 
	C139.791733,273.897614 135.436356,273.897614 131.023788,273.277740 
	C130.967148,272.869019 130.910522,272.460266 130.934769,271.112854 
	C130.935562,231.389297 130.936356,191.665756 131.627960,152.010696 
	C132.085556,151.960541 132.543152,151.910385 133.883041,151.987579 
	C136.257584,151.936600 138.632141,151.885620 141.710220,151.966675 
	C142.423279,151.986893 143.136353,152.007111 144.286377,152.662094 
	C144.660706,148.963135 145.035034,145.264175 145.505966,140.610703 
	C154.179123,140.610703 163.144165,140.595093 172.109116,140.614456 
	C184.626480,140.641510 197.143845,140.680908 209.661057,140.743759 
	C214.341278,140.767258 219.023651,140.999496 223.700470,140.906540 
	C229.631378,140.788681 235.557541,140.241760 241.485916,140.239151 
	C247.659637,140.236435 253.833527,140.661499 260.924835,141.019470 
	C265.193237,140.822311 269.462402,140.441681 273.729919,140.459763 
	C292.148743,140.537781 310.567047,140.732605 329.723358,140.975739 
	C339.049255,140.975739 348.375122,140.975739 357.747437,140.975739 
	C357.747437,136.264328 357.747437,132.140045 357.535217,127.176109 
	C348.032074,127.190262 338.528900,127.204422 328.092743,127.093971 
	C305.430847,127.134171 282.768921,127.174370 259.178680,126.995895 
	C220.822693,126.995895 182.466690,126.995895 143.824646,126.995895 
	C143.824646,131.713791 143.824646,135.855804 142.926498,140.041748 
	C138.684830,140.041748 134.443161,140.041748 129.539215,140.041748 
	C130.108643,144.619141 130.569916,148.327042 130.097839,152.071548 
	C126.173782,152.071548 122.249725,152.071548 118.178413,152.071548 
	C118.178413,165.191544 118.178413,177.621979 118.062225,190.947311 
	C118.441895,218.596146 118.821564,246.244980 119.205803,274.226959 
	C123.064407,274.226959 126.536552,274.226959 130.010391,275.118958 
	C130.010391,278.708405 130.010391,282.297821 130.010391,286.259583 
	C135.015381,286.259583 139.430634,286.259583 143.409073,286.259583 
	C144.008957,290.742218 144.549683,294.782684 146.009277,298.941620 
	C152.208313,298.941620 158.407364,298.941620 165.218018,298.941620 
	C165.218018,302.571991 165.218018,305.651184 165.044983,309.289795 
	C165.076797,309.480835 165.108627,309.671875 165.018387,310.810547 
	C165.018387,321.848663 165.018387,332.886810 165.018387,343.707764 
	C169.723770,343.707764 173.798157,343.707764 178.198853,343.707764 
	C178.198853,340.279510 178.198853,337.145569 178.974716,334.090668 
	C185.260803,336.375610 187.901871,334.586395 188.048309,328.175476 
	C188.103210,325.772247 188.664307,323.380615 189.658508,320.953979 
	C190.097778,320.907959 190.537033,320.861969 191.866943,320.978485 
	C195.398285,320.978485 198.929626,320.978485 203.122177,320.978485 
	C203.122177,317.248352 203.122177,313.644867 203.735138,309.694061 
	C208.080429,309.363281 212.425705,309.032471 216.899063,308.691925 
	C216.899063,304.760986 216.899063,301.461578 217.850311,298.002716 
	C236.898758,297.934784 255.947189,297.866852 275.924988,297.932892 
	C299.584930,297.888428 323.244843,297.843964 347.438782,297.892700 
	C347.610992,297.838043 347.783234,297.783356 348.876831,297.891479 
	C352.468597,297.891479 356.060333,297.891479 360.080414,297.891479 
	C360.080414,293.819275 360.080414,290.093048 360.080414,285.944855 
	C363.290436,285.944855 366.066498,285.960419 368.842285,285.940338 
	C371.435394,285.921600 373.226959,285.734222 372.179871,282.015930 
	C371.405731,279.266876 372.080597,276.109741 372.542938,273.028381 
	C372.542938,273.028381 372.959076,272.872223 373.596741,273.129181 
	C375.396667,273.362244 377.196594,273.595306 379.749664,273.966309 
	C380.423004,272.977142 381.096375,271.987976 381.867218,270.127747 
	C381.827026,268.085907 381.786835,266.044098 381.918335,263.275055 
	C381.864746,262.533783 381.811157,261.792511 381.878540,260.360107 
	C381.835693,259.896240 381.792877,259.432343 381.897766,258.502594 
	C381.897766,258.502594 381.749023,258.036987 381.875793,257.362457 
	C381.841003,256.907715 381.806213,256.452972 381.929932,255.500610 
	C381.877350,255.334641 381.824799,255.168686 381.880188,254.321381 
	C381.828186,253.867035 381.776184,253.412689 381.895966,252.053329 
	C381.834717,248.056625 381.773438,244.059921 381.852142,239.302917 
	C381.807434,238.534668 381.762726,237.766403 381.896881,236.076691 
	C381.896881,208.219589 381.896881,180.362473 381.896881,152.719727 
	C378.281921,152.051727 375.130554,151.469406 371.943542,150.018753 
	C371.943542,146.963699 371.943542,143.908630 371.943542,140.437332 
	C367.812195,140.437332 363.514374,140.437332 359.230316,140.437332 
	C358.633057,151.953232 358.632935,151.954590 369.528839,152.890411 
	C370.022888,152.932846 370.522400,152.911346 371.059357,153.866379 
	C371.080139,160.591293 371.100922,167.316223 370.993591,174.776825 
	C370.996368,179.802094 371.002289,184.827377 371.001221,189.852646 
	C370.998474,202.775879 370.971893,215.699127 370.993439,228.622314 
	C371.018127,243.421585 371.084503,258.220764 370.735840,273.686768 
	C366.969055,273.686768 363.202271,273.686768 358.942444,273.686768 
	C358.942444,277.555695 358.942444,280.623047 358.942444,283.952271 
	C354.969849,283.952271 351.503693,283.952271 347.636841,283.174652 
	C323.742615,283.184814 299.848358,283.195007 275.030823,283.073853 
	C256.211060,283.060394 237.391251,283.032318 218.571671,283.082581 
	C217.748459,283.084778 216.927185,283.805023 216.044861,284.954895 
	C216.072571,288.931335 216.100281,292.907745 215.949478,297.013733 
M295.726196,252.952164 
	C313.120728,252.952164 330.515228,252.952164 347.617615,252.952164 
	C347.617615,248.243179 347.617615,244.173279 347.617615,240.166489 
	C329.793518,240.166489 312.317596,240.166489 293.941772,239.975906 
	C279.116547,239.975906 264.291321,239.975906 249.842026,239.975906 
	C249.842026,244.999451 249.842026,248.850952 249.842026,252.916855 
	C265.214172,252.916855 279.973724,252.916855 295.726196,252.952164 
z"/>
<path fill="#F5B72A" opacity="1.000000" stroke="none" 
	d="
M216.156281,170.873627 
	C216.122406,167.916565 216.088547,164.959518 216.579102,161.521500 
	C228.015732,161.122086 238.927933,161.203644 249.840134,161.285187 
	C249.983582,161.579224 250.037964,161.888901 249.703583,162.797211 
	C249.251999,171.647141 249.059219,179.913620 248.961166,188.181213 
	C248.882828,194.787766 248.932602,194.750107 242.522400,194.987778 
	C241.702423,195.018158 240.906387,195.694244 240.099258,196.071198 
	C239.918442,207.690216 240.755310,207.078552 228.141251,207.098785 
	C226.849838,208.627426 226.060638,210.066544 226.032379,211.520447 
	C225.887222,218.985779 225.952988,218.969559 218.571976,220.062576 
	C218.013596,220.145248 217.529205,220.727554 217.010437,221.077637 
	C217.010437,221.077637 217.076660,221.021500 216.800751,221.001617 
	C216.630173,221.690857 216.735489,222.400009 216.840805,223.109146 
	C217.167496,230.953827 217.167496,230.952301 209.342239,230.966415 
	C207.855438,230.969086 206.368652,230.989029 204.096924,231.317719 
	C203.391266,234.231674 202.730484,238.710587 203.683777,239.085480 
	C207.002106,240.390564 210.879608,240.273865 215.409698,240.797806 
	C214.920013,244.573105 214.447922,248.212708 213.975845,251.852325 
	C209.533875,251.902008 205.075394,251.732117 200.654709,252.064713 
	C196.451065,252.380951 194.372711,251.123764 195.015640,246.608978 
	C195.171722,245.512802 194.817734,244.343979 194.251144,242.629120 
	C193.208496,240.275284 192.184860,238.521164 192.099823,236.722641 
	C191.868134,231.822647 192.033066,226.903885 192.276947,221.784943 
	C192.693710,220.761459 192.874390,219.945572 193.504593,219.073303 
	C196.549744,219.016891 199.145370,219.016891 201.705780,219.016891 
	C201.857407,217.960159 201.972183,217.488312 201.986282,217.013489 
	C202.243805,208.345734 202.232025,208.307007 210.364029,206.373077 
	C212.071808,205.966949 213.874542,205.960083 216.092621,205.719406 
	C216.092621,202.530899 216.092621,199.465485 216.092621,196.971283 
	C219.727356,195.979874 224.086716,196.061691 225.455032,194.079147 
	C226.986053,191.860870 225.806519,187.771820 225.806519,184.464355 
	C229.493439,183.776016 232.628189,183.190765 236.146118,182.533981 
	C236.146118,179.973724 236.146118,177.509308 236.369598,174.869705 
	C236.343109,174.139374 236.093140,173.584213 235.880920,173.038940 
	C235.918701,173.048813 235.888672,173.120895 235.647873,172.782684 
	C233.315231,172.281723 231.222778,172.126556 229.131699,171.954636 
	C224.806168,171.599030 220.481369,171.234497 216.156281,170.873627 
z"/>
<path fill="#F07B35" opacity="1.000000" stroke="none" 
	d="
M118.178413,190.052414 
	C118.178413,177.621979 118.178413,165.191544 118.178413,152.071548 
	C122.249725,152.071548 126.173782,152.071548 130.541443,152.029785 
	C130.985062,151.988007 130.937164,151.942200 130.937164,151.942200 
	C130.936356,191.665756 130.935562,231.389297 130.679413,271.647888 
	C130.161469,272.350098 129.974838,272.579163 129.416473,272.895142 
	C118.271614,273.045380 120.114365,273.747223 120.062843,264.458008 
	C119.934662,241.349930 120.004158,218.240723 119.860184,195.132812 
	C119.849617,193.435913 118.764145,191.745728 118.178413,190.052414 
z"/>
<path fill="#F37B32" opacity="1.000000" stroke="none" 
	d="
M192.040848,221.992569 
	C192.033066,226.903885 191.868134,231.822647 192.099823,236.722641 
	C192.184860,238.521164 193.208496,240.275284 193.876022,242.412842 
	C189.024811,242.831802 184.101593,242.887589 178.547607,242.562332 
	C177.662964,240.417023 177.072693,238.623245 177.224274,236.894531 
	C177.553421,233.140594 176.216125,231.419250 172.326859,231.477158 
	C169.906128,231.513214 167.477219,230.999908 165.051971,230.733154 
	C165.051971,227.671173 165.051971,224.609192 165.051971,220.942566 
	C162.493027,220.942566 160.278015,220.942566 157.529785,220.561890 
	C156.670731,219.940918 156.344894,219.700607 156.019073,219.460297 
	C156.019073,219.460297 156.048004,219.487991 156.238892,218.994232 
	C156.301193,218.157898 156.172623,217.815338 156.044037,217.472794 
	C156.044037,217.472794 156.029678,217.491898 156.369736,217.177704 
	C156.870529,209.974182 157.031281,203.084824 157.192017,196.195480 
	C161.576065,196.195480 165.960129,196.195480 170.994217,196.195480 
	C170.994217,199.578461 170.994217,202.783707 171.197266,206.710846 
	C172.590973,207.356552 173.781647,207.280350 174.972305,207.204163 
	C175.580383,206.881409 176.188461,206.558655 177.508301,206.605698 
	C178.815781,209.342377 179.986420,211.734406 179.884262,214.070770 
	C179.687988,218.558548 181.144272,220.401276 185.810883,220.143005 
	C187.847183,220.030304 189.961792,221.332779 192.040848,221.992569 
z"/>
<path fill="#76AD37" opacity="1.000000" stroke="none" 
	d="
M328.985565,140.884918 
	C310.567047,140.732605 292.148743,140.537781 273.729919,140.459763 
	C269.462402,140.441681 265.193237,140.822311 260.520142,140.630493 
	C260.024658,139.583817 259.933807,138.926117 259.922302,137.796570 
	C260.022491,134.280960 260.043335,131.237228 260.127197,128.099792 
	C260.190186,128.006104 260.221222,127.782433 260.667847,127.787476 
	C283.684113,127.856468 306.253784,127.920418 328.882324,128.444046 
	C328.955963,132.897446 328.970764,136.891174 328.985565,140.884918 
z"/>
<path fill="#9077CF" opacity="1.000000" stroke="none" 
	d="
M371.121735,174.041138 
	C371.100922,167.316223 371.080139,160.591293 371.267700,153.209290 
	C371.643768,151.997177 371.811462,151.442123 371.979187,150.887085 
	C375.130554,151.469406 378.281921,152.051727 381.896881,152.719727 
	C381.896881,180.362473 381.896881,208.219589 381.501038,236.500046 
	C376.257568,237.288055 374.280609,239.388870 374.158997,243.821091 
	C374.138611,244.564407 372.776398,245.270905 372.015686,245.526581 
	C371.991455,223.129608 372.005157,201.200409 371.942932,179.271454 
	C371.937988,177.527252 371.407837,175.784546 371.121735,174.041138 
M380.496063,233.321823 
	C380.125275,232.687622 379.754456,232.053436 379.383636,231.419266 
	C378.985870,231.820557 378.588104,232.221848 378.190308,232.623138 
	C378.799896,232.991318 379.409485,233.359497 380.496063,233.321823 
M376.425903,234.485733 
	C376.425903,234.485733 376.520874,234.433197 376.425903,234.485733 
z"/>
<path fill="#987DD1" opacity="1.000000" stroke="none" 
	d="
M164.670166,230.855377 
	C167.477219,230.999908 169.906128,231.513214 172.326859,231.477158 
	C176.216125,231.419250 177.553421,233.140594 177.224274,236.894531 
	C177.072693,238.623245 177.662964,240.417023 178.098419,242.549652 
	C178.182953,243.738007 178.019348,244.556381 177.999298,245.378250 
	C177.819748,252.736786 177.826813,252.891174 170.449310,252.872009 
	C166.982727,252.863007 165.563782,254.040787 165.880905,257.526733 
	C166.081436,259.731049 165.918350,261.968475 165.918350,264.976044 
	C160.353592,264.976044 154.469284,265.078888 148.597763,264.851685 
	C147.825150,264.821808 146.501709,263.119476 146.478241,262.166046 
	C146.299423,254.897934 146.380249,247.623444 146.380249,239.962326 
	C147.927521,239.962326 149.575073,239.895645 151.215469,239.975739 
	C155.040924,240.162521 158.620010,240.571609 158.326920,234.645126 
	C158.271454,233.523636 162.198776,232.205185 164.670166,230.855377 
z"/>
<path fill="#76AD37" opacity="1.000000" stroke="none" 
	d="
M294.733246,252.916855 
	C279.973724,252.916855 265.214172,252.916855 249.842026,252.916855 
	C249.842026,248.850952 249.842026,244.999451 249.842026,239.975906 
	C264.291321,239.975906 279.116547,239.975906 294.462463,240.248383 
	C294.983124,240.520874 295.193634,240.837021 295.082947,241.300598 
	C294.950836,245.159546 294.929413,248.554932 294.804077,252.181061 
	C294.711182,252.580139 294.722198,252.748489 294.733246,252.916855 
z"/>
<path fill="#F37B32" opacity="1.000000" stroke="none" 
	d="
M165.218018,308.730408 
	C165.218018,305.651184 165.218018,302.571991 165.218018,298.941620 
	C158.407364,298.941620 152.208313,298.941620 145.521393,298.431213 
	C145.022339,293.613861 145.011169,289.306915 144.994766,285.005066 
	C144.989532,285.010162 144.978653,285.020874 145.448700,285.036804 
	C154.847305,285.042572 163.778931,284.913788 172.701370,285.142731 
	C174.132935,285.179474 176.695541,286.754639 176.745010,287.720551 
	C177.097473,294.602631 176.932968,301.511200 176.932968,308.496368 
	C174.900482,308.842377 173.462860,309.087097 171.597763,309.304382 
	C170.029739,309.221283 168.889206,309.165619 167.750839,308.941528 
	C167.753006,308.773132 167.367447,308.651123 167.367447,308.651123 
	C167.367447,308.651123 167.216171,309.080750 166.899078,309.081116 
	C166.372131,309.056000 166.162292,309.030487 165.772339,308.927795 
	C165.592224,308.850555 165.218018,308.730408 165.218018,308.730408 
z"/>
<path fill="#987DD1" opacity="1.000000" stroke="none" 
	d="
M165.952438,309.005005 
	C166.162292,309.030487 166.372131,309.056000 167.029175,309.119446 
	C167.476379,309.157440 167.748672,309.109985 167.748672,309.109985 
	C168.889206,309.165619 170.029739,309.221283 171.835083,309.514771 
	C174.245697,310.074799 175.991516,310.396942 177.737335,310.719116 
	C177.737335,313.963806 177.737335,317.208496 177.737335,320.977570 
	C180.875778,320.977570 183.445663,320.977570 186.806702,320.973511 
	C188.051575,320.960815 188.505295,320.952179 188.968506,320.953613 
	C188.977982,320.963654 188.994614,320.983673 188.994614,320.983673 
	C188.664307,323.380615 188.103210,325.772247 188.048309,328.175476 
	C187.901871,334.586395 185.260803,336.375610 178.256714,334.299561 
	C177.195007,337.224365 176.851303,339.940216 176.500870,342.709290 
	C175.174927,342.825897 174.194229,343.010681 173.219833,342.981934 
	C166.645676,342.788147 166.436096,344.111511 166.425690,336.409546 
	C166.413879,327.672333 166.135941,318.935486 165.991470,309.899719 
	C165.990326,309.402313 165.971390,309.203674 165.952438,309.005005 
z"/>
<path fill="#5991EA" opacity="1.000000" stroke="none" 
	d="
M347.794678,208.036484 
	C347.845215,211.378433 347.895752,214.720367 347.721924,218.536743 
	C347.497620,219.011169 347.193604,219.022598 346.811554,218.975494 
	C334.014587,218.947647 321.596008,218.807251 309.187134,219.090683 
	C305.792145,219.168259 303.998871,218.114029 303.082977,214.687897 
	C303.053040,213.886063 303.078796,213.426224 303.357788,212.683655 
	C303.721283,208.934326 305.328461,207.819595 308.921295,207.888306 
	C321.681793,208.132385 334.449982,207.975220 347.361786,207.971985 
	C347.508331,207.973953 347.794708,208.036484 347.794678,208.036484 
z"/>
<path fill="#71B12E" opacity="1.000000" stroke="none" 
	d="
M283.976257,174.248154 
	C284.732178,174.186523 285.488098,174.124893 286.877808,174.069702 
	C287.682037,174.105789 287.852509,174.135422 288.347778,174.417938 
	C298.270172,174.759857 307.867767,174.848892 317.600189,175.271484 
	C317.817871,176.075394 317.900665,176.545746 317.685059,177.208160 
	C317.269012,178.587341 317.151398,179.774445 317.018890,181.303162 
	C317.009094,182.100464 317.014160,182.556137 317.014832,183.275146 
	C316.965271,183.708176 316.920166,183.877853 316.625336,184.151459 
	C315.609680,184.726028 314.843689,185.196686 314.077698,185.667358 
	C311.001129,185.714233 307.924591,185.761139 304.301880,185.624268 
	C303.477753,185.305023 303.245392,185.371475 303.058716,185.639832 
	C302.582489,185.689590 302.106232,185.739349 301.119324,185.569336 
	C300.096069,185.455002 299.583435,185.560410 299.070831,185.665833 
	C298.584991,185.709229 298.099182,185.752625 296.996521,185.536865 
	C294.953064,185.401932 293.526489,185.526138 292.099884,185.650360 
	C287.695648,185.718384 283.291443,185.786392 278.326477,185.668686 
	C277.454987,185.335709 277.208740,185.421753 277.026978,185.741119 
	C276.537109,185.780640 276.047272,185.820145 275.018982,185.914047 
	C274.480591,185.968430 274.136475,185.970428 274.136475,185.970428 
	C273.780548,182.616913 273.424622,179.263412 273.397278,175.443542 
	C274.132050,174.749985 274.538269,174.522797 274.944489,174.295593 
	C275.408051,174.238052 275.871582,174.180496 276.771667,174.310211 
	C277.208221,174.497452 277.620209,174.578766 277.620209,174.578766 
	C277.620209,174.578766 277.960571,174.298401 277.960571,174.298401 
	C278.425201,174.260681 278.889862,174.222977 279.798065,174.357208 
	C280.241638,174.529144 280.652374,174.569077 280.652374,174.569077 
	C280.652374,174.569077 280.968536,174.271820 280.968536,174.271820 
	C281.429382,174.235550 281.890259,174.199280 282.793304,174.338562 
	C283.235504,174.514084 283.655823,174.556915 283.655823,174.556915 
	C283.655823,174.556915 283.976257,174.248154 283.976257,174.248154 
z"/>
<path fill="#71B12E" opacity="1.000000" stroke="none" 
	d="
M303.104492,212.966400 
	C303.078796,213.426224 303.053040,213.886063 303.000916,215.079681 
	C302.855194,216.874329 302.735870,217.935196 302.171936,218.993378 
	C290.850861,218.992706 279.969269,218.803482 269.100677,219.096680 
	C265.100128,219.204590 262.864288,218.054642 262.288727,214.070755 
	C262.206696,213.631241 262.124664,213.191727 262.251953,212.202454 
	C262.982849,210.133072 263.504486,208.613480 264.488892,207.026123 
	C277.608368,206.892868 290.265045,206.827347 302.925049,206.815186 
	C302.928345,206.868515 302.985535,206.958832 302.945679,207.388855 
	C302.972046,209.534714 303.038269,211.250565 303.104492,212.966400 
z"/>
<path fill="#5C90E1" opacity="1.000000" stroke="none" 
	d="
M329.354462,140.930328 
	C328.970764,136.891174 328.955963,132.897446 328.970032,128.382507 
	C328.998901,127.861290 329.135437,127.697609 329.583618,127.787422 
	C339.270355,127.923416 348.508911,127.969597 357.747437,128.015778 
	C357.747437,132.140045 357.747437,136.264328 357.747437,140.975739 
	C348.375122,140.975739 339.049255,140.975739 329.354462,140.930328 
z"/>
<path fill="#E9B17F" opacity="1.000000" stroke="none" 
	d="
M259.842987,138.268433 
	C259.933807,138.926117 260.024658,139.583817 260.061401,140.570511 
	C253.833527,140.661499 247.659637,140.236435 241.485916,140.239151 
	C235.557541,140.241760 229.631378,140.788681 223.700470,140.906540 
	C219.023651,140.999496 214.341278,140.767258 209.661057,140.743759 
	C197.143845,140.680908 184.626480,140.641510 172.109116,140.614456 
	C163.144165,140.595093 154.179123,140.610703 145.505966,140.610703 
	C145.035034,145.264175 144.660706,148.963135 144.109955,151.931168 
	C143.925659,149.807297 143.917755,148.414352 143.924896,146.683212 
	C143.919647,145.894363 143.899323,145.443710 143.897141,144.746368 
	C143.915268,144.499680 143.847031,144.009674 143.864716,143.681366 
	C143.859421,142.915512 143.836456,142.477982 143.857758,141.700439 
	C143.876236,140.906235 143.850433,140.452042 143.824646,139.997833 
	C143.824646,135.855804 143.824646,131.713791 143.824646,126.995895 
	C182.466690,126.995895 220.822693,126.995895 259.658447,127.249695 
	C260.138245,127.503487 260.221222,127.782433 260.221222,127.782433 
	C260.221222,127.782433 260.190186,128.006104 259.653595,128.058105 
	C244.746582,128.433426 230.376144,128.756744 215.590393,129.005310 
	C213.226654,128.627350 211.279053,128.066879 209.329727,128.060730 
	C189.685318,127.998688 170.040649,128.021164 150.396057,128.042374 
	C148.792206,128.044098 147.188507,128.211273 145.418579,128.310913 
	C145.418579,131.989136 145.418579,135.214966 145.418579,138.818527 
	C168.197876,138.818527 190.626511,138.818527 213.518707,138.856613 
	C225.137924,138.921127 236.294022,139.012299 247.449066,138.940247 
	C251.581650,138.913574 255.711746,138.503601 259.842987,138.268433 
z"/>
<path fill="#9077CF" opacity="1.000000" stroke="none" 
	d="
M372.109924,273.134430 
	C372.080597,276.109741 371.405731,279.266876 372.179871,282.015930 
	C373.226959,285.734222 371.435394,285.921600 368.842285,285.940338 
	C366.066498,285.960419 363.290436,285.944855 360.080414,285.944855 
	C360.080414,290.093048 360.080414,293.819275 360.080414,297.891479 
	C356.060333,297.891479 352.468597,297.891479 348.277863,297.631470 
	C347.431030,297.176514 347.149384,297.077820 346.877747,297.083679 
	C346.921539,297.092010 346.879242,297.170441 346.926392,296.867218 
	C346.977478,296.360382 346.981445,296.156769 347.000488,295.498260 
	C347.002838,291.696381 346.990112,288.349426 346.995056,284.777618 
	C347.012726,284.552795 347.033264,284.102234 347.283203,284.057190 
	C347.701294,283.992157 347.869446,283.972198 348.037567,283.952271 
	C351.503693,283.952271 354.969849,283.952271 358.942444,283.952271 
	C358.942444,280.623047 358.942444,277.555695 358.942444,273.686768 
	C363.202271,273.686768 366.969055,273.686768 371.179749,273.371643 
	C371.623627,273.056519 372.109924,273.134430 372.109924,273.134430 
z"/>
<path fill="#5C90E1" opacity="1.000000" stroke="none" 
	d="
M317.983459,177.016083 
	C317.900665,176.545746 317.817871,176.075394 317.818237,175.313263 
	C317.901459,175.021484 318.326721,175.125732 318.652161,175.101837 
	C319.994598,174.767731 321.011597,174.457520 322.269379,174.096375 
	C322.510193,174.045456 323.002228,174.029099 323.002228,174.029099 
	C330.341400,174.062759 337.680542,174.096436 345.493317,174.529755 
	C346.581421,175.626831 347.195923,176.324234 347.810425,177.021637 
	C347.865753,179.384827 347.921082,181.748016 347.717834,184.626480 
	C347.232788,185.283691 347.075165,185.480759 346.986481,185.732971 
	C340.294312,185.782761 333.602173,185.832550 326.140076,185.594238 
	C320.848450,185.400894 318.074646,183.837524 318.886383,178.665100 
	C318.963318,178.174744 318.302032,177.568512 317.983459,177.016083 
z"/>
<path fill="#987DD1" opacity="1.000000" stroke="none" 
	d="
M372.034180,245.994415 
	C372.776398,245.270905 374.138611,244.564407 374.158997,243.821091 
	C374.280609,239.388870 376.257568,237.288055 381.411621,236.960785 
	C381.762726,237.766403 381.807434,238.534668 381.573029,239.899323 
	C378.711090,244.744049 380.517914,248.840820 381.724182,252.958344 
	C381.776184,253.412689 381.828186,253.867035 381.605408,254.681274 
	C381.105957,255.195038 380.881256,255.348892 380.656586,255.502731 
	C381.028198,255.667908 381.399780,255.833069 381.771423,255.998230 
	C381.806213,256.452972 381.841003,256.907715 381.687714,257.791443 
	C381.336060,258.535461 381.419525,258.784790 381.750061,258.968475 
	C381.792877,259.432343 381.835693,259.896240 381.622864,260.882385 
	C381.493683,262.270508 381.620148,263.136383 381.746643,264.002258 
	C381.786835,266.044098 381.827026,268.085907 381.507202,270.605896 
	C380.430298,271.998810 379.713409,272.913605 378.996521,273.828369 
	C377.196594,273.595306 375.396667,273.362244 373.122131,272.624207 
	C372.789276,265.406982 372.931000,258.694733 373.403748,251.918152 
	C374.140594,250.720535 374.546448,249.587265 374.952332,248.453979 
	C374.284882,248.310684 373.617462,248.167374 372.708038,247.851685 
	C372.322113,247.117645 372.178162,246.556030 372.034180,245.994415 
z"/>
<path fill="#E98640" opacity="1.000000" stroke="none" 
	d="
M192.276947,221.784943 
	C189.961792,221.332779 187.847183,220.030304 185.810883,220.143005 
	C181.144272,220.401276 179.687988,218.558548 179.884262,214.070770 
	C179.986420,211.734406 178.815781,209.342377 177.799789,206.804062 
	C178.205154,203.348099 179.030823,200.063568 179.938858,196.451324 
	C183.001663,196.111984 186.629364,195.710052 190.705109,195.113678 
	C191.153137,194.919220 191.263763,195.031128 191.350677,195.301910 
	C191.963226,195.763962 192.488861,195.955215 193.009216,196.592804 
	C192.971359,207.883514 192.971451,207.880447 182.823349,207.568497 
	C182.573608,207.560837 182.315689,207.819611 181.953186,208.011475 
	C181.953186,209.804001 181.953171,211.632019 181.953171,213.460052 
	C181.953171,215.220383 181.953186,216.980713 181.953186,218.981812 
	C184.284164,218.981812 185.928940,218.962662 187.573074,218.986923 
	C189.400711,219.013885 191.227753,219.080414 193.055054,219.129700 
	C192.874390,219.945572 192.693710,220.761459 192.276947,221.784943 
z"/>
<path fill="#5C90E1" opacity="1.000000" stroke="none" 
	d="
M200.985764,308.943176 
	C201.494019,305.588715 202.002289,302.234253 202.620941,298.151215 
	C206.442108,297.956116 210.786682,297.734283 215.639374,297.544342 
	C216.369217,297.808472 216.619736,298.003815 216.899063,298.162201 
	C216.899063,301.461578 216.899063,304.760986 216.899063,308.691925 
	C212.425705,309.032471 208.080429,309.363281 203.075027,309.856689 
	C201.943558,310.019348 201.472214,310.019318 200.999603,310.010437 
	C200.998352,310.001587 200.980682,309.998810 200.992233,309.734955 
	C200.997787,309.295135 200.991776,309.119171 200.985764,308.943176 
z"/>
<path fill="#5C90E1" opacity="1.000000" stroke="none" 
	d="
M371.961365,150.452911 
	C371.811462,151.442123 371.643768,151.997177 371.247711,152.735901 
	C370.522400,152.911346 370.022888,152.932846 369.528839,152.890411 
	C358.632935,151.954590 358.633057,151.953232 359.230316,140.437332 
	C363.514374,140.437332 367.812195,140.437332 371.943542,140.437332 
	C371.943542,143.908630 371.943542,146.963699 371.961365,150.452911 
z"/>
<path fill="#F37B32" opacity="1.000000" stroke="none" 
	d="
M131.080978,273.897614 
	C135.436356,273.897614 139.791733,273.897614 144.995605,273.897614 
	C144.995605,276.927673 144.995605,279.968048 144.985321,283.732574 
	C144.976227,284.644806 144.977448,284.832855 144.978653,285.020874 
	C144.978653,285.020874 144.989532,285.010162 144.529999,285.045288 
	C139.820877,285.080383 135.571289,285.080383 131.080978,285.080383 
	C131.080978,280.813019 131.080978,277.355316 131.080978,273.897614 
z"/>
<path fill="#E9B17F" opacity="1.000000" stroke="none" 
	d="
M118.120316,190.499863 
	C118.764145,191.745728 119.849617,193.435913 119.860184,195.132812 
	C120.004158,218.240723 119.934662,241.349930 120.062843,264.458008 
	C120.114365,273.747223 118.271614,273.045380 129.475464,273.232178 
	C129.991013,273.771851 129.999863,273.999420 130.008698,274.226959 
	C126.536552,274.226959 123.064407,274.226959 119.205803,274.226959 
	C118.821564,246.244980 118.441895,218.596146 118.120316,190.499863 
z"/>
<path fill="#F5B72A" opacity="1.000000" stroke="none" 
	d="
M191.075775,194.904968 
	C191.025879,191.613251 191.053360,188.335785 191.594040,184.577515 
	C202.080566,183.542480 201.824081,183.553818 202.085571,189.471313 
	C202.285110,193.986908 200.433273,195.457642 196.232620,195.008789 
	C194.595825,194.833908 192.921173,195.013184 191.263763,195.031128 
	C191.263763,195.031128 191.153137,194.919220 191.075775,194.904968 
z"/>
<path fill="#BEAFE7" opacity="1.000000" stroke="none" 
	d="
M295.229736,252.934509 
	C294.722198,252.748489 294.711182,252.580139 295.281311,252.205872 
	C311.325195,252.006424 326.791656,251.827469 342.248627,252.130814 
	C346.968292,252.223434 347.144257,250.045547 347.182770,246.429535 
	C347.223145,242.637863 346.613220,240.736282 342.083893,240.807098 
	C326.457489,241.051392 310.824249,240.861526 295.193634,240.837021 
	C295.193634,240.837021 294.983124,240.520874 294.912415,240.343689 
	C312.317596,240.166489 329.793518,240.166489 347.617615,240.166489 
	C347.617615,244.173279 347.617615,248.243179 347.617615,252.952164 
	C330.515228,252.952164 313.120728,252.952164 295.229736,252.934509 
z"/>
<path fill="#5991EA" opacity="1.000000" stroke="none" 
	d="
M190.976303,320.815979 
	C190.537033,320.861969 190.097778,320.907959 189.326569,320.968811 
	C188.994614,320.983673 188.977982,320.963654 188.990845,320.546570 
	C189.203491,310.028717 189.203491,310.028625 199.006561,310.000458 
	C199.664597,309.998566 200.322647,309.999329 200.980682,309.998810 
	C200.980682,309.998810 200.998352,310.001587 200.999023,310.465851 
	C201.026169,319.226044 201.024872,319.213440 192.753601,320.065369 
	C192.141891,320.128357 191.567856,320.557220 190.976303,320.815979 
z"/>
<path fill="#BEAFE7" opacity="1.000000" stroke="none" 
	d="
M372.015686,245.526581 
	C372.178162,246.556030 372.322113,247.117645 372.731567,248.246964 
	C373.022308,249.870605 373.047516,250.926544 373.072723,251.982498 
	C372.931000,258.694733 372.789276,265.406982 372.803314,272.495728 
	C372.959076,272.872223 372.542938,273.028381 372.326416,273.081421 
	C372.109924,273.134430 371.623627,273.056519 371.378174,273.038269 
	C371.084503,258.220764 371.018127,243.421585 370.993439,228.622314 
	C370.971893,215.699127 370.998474,202.775879 371.001221,189.852646 
	C371.002289,184.827377 370.996368,179.802094 371.057678,174.408981 
	C371.407837,175.784546 371.937988,177.527252 371.942932,179.271454 
	C372.005157,201.200409 371.991455,223.129608 372.015686,245.526581 
z"/>
<path fill="#F37B32" opacity="1.000000" stroke="none" 
	d="
M143.879013,144.993057 
	C143.899323,145.443710 143.919647,145.894363 143.693161,146.898071 
	C142.633133,148.912292 141.819916,150.373459 141.006683,151.834641 
	C138.632141,151.885620 136.257584,151.936600 133.379044,151.530197 
	C132.743362,148.174149 132.215454,145.191742 132.796280,142.443680 
	C132.920502,141.856079 137.065857,142.082657 139.361115,142.002502 
	C140.842987,141.950760 142.329208,142.023499 143.813492,142.040451 
	C143.836456,142.477982 143.859421,142.915512 143.735504,143.781921 
	C143.420517,144.547729 143.517319,144.808472 143.879013,144.993057 
z"/>
<path fill="#E9B17F" opacity="1.000000" stroke="none" 
	d="
M191.350677,195.301926 
	C192.921173,195.013184 194.595825,194.833908 196.232620,195.008789 
	C200.433273,195.457642 202.285110,193.986908 202.085571,189.471313 
	C201.824081,183.553818 202.080566,183.542480 191.661255,184.136200 
	C192.762909,183.788239 194.291931,183.229523 195.863113,183.058563 
	C197.657150,182.863358 199.488770,183.013367 201.698364,183.013367 
	C201.698364,179.467010 201.698364,176.062927 201.698364,171.667801 
	C206.623810,171.667801 211.173355,171.667801 215.939590,171.270721 
	C220.481369,171.234497 224.806168,171.599030 229.131699,171.954636 
	C231.222778,172.126556 233.315231,172.281723 235.187393,172.745834 
	C229.041702,173.047195 223.115692,173.047195 217.770645,173.047195 
	C217.046783,177.130341 216.451859,180.486206 215.881348,183.391968 
	C216.238892,172.403427 216.244492,172.503540 206.929871,173.024689 
	C203.900269,173.194183 202.626968,174.457352 202.967941,177.332581 
	C203.197525,179.268494 203.687408,181.173553 204.046967,183.515961 
	C203.519562,187.908752 203.006027,191.878021 202.453766,196.146469 
	C199.267700,196.146469 196.141083,196.146469 193.014481,196.146469 
	C192.488861,195.955215 191.963226,195.763962 191.350677,195.301926 
z"/>
<path fill="#D1E5B9" opacity="1.000000" stroke="none" 
	d="
M216.105011,284.190796 
	C216.927185,283.805023 217.748459,283.084778 218.571671,283.082581 
	C237.391251,283.032318 256.211060,283.060394 275.510284,283.266571 
	C275.989746,283.459290 276.059265,283.706268 275.748474,283.766602 
	C275.024323,283.889282 274.610962,283.951599 273.867859,284.080627 
	C266.419891,284.411163 259.301666,284.674896 252.061584,284.703644 
	C251.630981,284.344208 251.322266,284.219757 250.680893,284.031799 
	C249.898941,283.985352 249.449646,284.002472 248.536255,283.946808 
	C237.416428,283.979645 226.760727,284.085236 216.105011,284.190796 
z"/>
<path fill="#E2F1FF" opacity="1.000000" stroke="none" 
	d="
M347.193604,219.022583 
	C347.193604,219.022598 347.497620,219.011169 347.647278,218.984894 
	C346.193268,219.967422 344.586761,221.846344 342.986359,221.841080 
	C333.894257,221.811279 324.805084,221.274841 315.711700,221.030334 
	C311.701050,220.922485 307.682800,221.096390 303.304749,220.805664 
	C302.941498,220.468964 302.871338,220.085388 302.882141,220.043060 
	C302.892975,220.000732 302.950348,219.934830 303.420898,219.978699 
	C316.631927,220.031906 329.372589,220.079468 342.112579,220.004883 
	C343.808105,219.994949 345.500031,219.365265 347.193604,219.022583 
z"/>
<path fill="#BEAFE7" opacity="1.000000" stroke="none" 
	d="
M276.059265,283.706299 
	C276.059265,283.706268 275.989746,283.459290 275.971924,283.332245 
	C299.848358,283.195007 323.742615,283.184814 347.837219,283.563477 
	C347.869446,283.972198 347.701294,283.992157 346.811401,284.017212 
	C337.437866,284.052673 328.786072,284.083069 319.696533,284.076050 
	C317.795593,284.058685 316.332428,284.078766 314.423889,284.058350 
	C310.364655,284.044739 306.750793,284.071594 302.726685,284.058167 
	C299.519379,284.028290 296.722321,284.038727 293.466278,284.019287 
	C287.357971,283.895081 281.708618,283.800690 276.059265,283.706299 
z"/>
<path fill="#E2F1FF" opacity="1.000000" stroke="none" 
	d="
M346.904785,297.799469 
	C323.244843,297.843964 299.584930,297.888428 275.523193,297.742676 
	C275.121368,297.552490 275.185608,297.283783 275.574310,297.227234 
	C277.289795,297.081329 278.616608,296.991943 280.404449,296.974945 
	C285.536926,296.731049 290.208374,296.414795 295.168060,296.418274 
	C297.274902,296.855255 299.093170,297.068329 300.912140,297.074677 
	C316.234436,297.128052 331.556854,297.143555 346.879242,297.170441 
	C346.879242,297.170441 346.921539,297.092010 346.880768,297.266144 
	C346.839996,297.440277 346.904785,297.799469 346.904785,297.799469 
z"/>
<path fill="#D1E5B9" opacity="1.000000" stroke="none" 
	d="
M260.667847,127.787476 
	C260.221222,127.782433 260.138245,127.503487 260.122620,127.359024 
	C282.768921,127.174370 305.430847,127.134171 328.564667,127.281067 
	C329.036591,127.468170 329.135437,127.697609 329.135437,127.697609 
	C329.135437,127.697609 328.998901,127.861290 328.911194,127.922829 
	C306.253784,127.920418 283.684113,127.856468 260.667847,127.787476 
z"/>
<path fill="#E9B17F" opacity="1.000000" stroke="none" 
	d="
M145.448700,285.036804 
	C144.977448,284.832855 144.976227,284.644806 144.991699,284.175049 
	C155.801041,283.893341 166.593719,283.893341 177.933762,283.893341 
	C177.933762,292.714844 177.933762,301.287079 177.835541,310.289215 
	C175.991516,310.396942 174.245697,310.074799 172.262573,309.542236 
	C173.462860,309.087097 174.900482,308.842377 176.932968,308.496368 
	C176.932968,301.511200 177.097473,294.602631 176.745010,287.720551 
	C176.695541,286.754639 174.132935,285.179474 172.701370,285.142731 
	C163.778931,284.913788 154.847305,285.042572 145.448700,285.036804 
z"/>
<path fill="#BEAFE7" opacity="1.000000" stroke="none" 
	d="
M165.973694,310.198486 
	C166.135941,318.935486 166.413879,327.672333 166.425690,336.409546 
	C166.436096,344.111511 166.645676,342.788147 173.219833,342.981934 
	C174.194229,343.010681 175.174927,342.825897 176.500870,342.709290 
	C176.851303,339.940216 177.195007,337.224365 177.868774,334.260071 
	C178.198853,337.145569 178.198853,340.279510 178.198853,343.707764 
	C173.798157,343.707764 169.723770,343.707764 165.018387,343.707764 
	C165.018387,332.886810 165.018387,321.848663 165.297760,310.396271 
	C165.577148,309.981995 165.973694,310.198486 165.973694,310.198486 
z"/>
<path fill="#D1E5B9" opacity="1.000000" stroke="none" 
	d="
M275.185608,297.283783 
	C275.185608,297.283783 275.121368,297.552490 275.058502,297.675720 
	C255.947189,297.866852 236.898758,297.934784 217.374695,298.082458 
	C216.619736,298.003815 216.369217,297.808472 215.995026,297.391418 
	C215.842560,297.206665 215.949478,297.013733 216.436508,297.016846 
	C218.277985,296.983276 219.632446,296.946594 221.325256,296.949341 
	C222.115952,296.958191 222.568253,296.927582 223.483231,296.966187 
	C240.956436,296.989716 257.966980,296.944061 275.038147,296.990082 
	C275.098816,297.081757 275.185608,297.283783 275.185608,297.283783 
z"/>
<path fill="#76AD37" opacity="1.000000" stroke="none" 
	d="
M220.986893,296.909912 
	C219.632446,296.946594 218.277985,296.983276 216.525757,296.952087 
	C216.100281,292.907745 216.072571,288.931335 216.074936,284.572876 
	C226.760727,284.085236 237.416428,283.979645 248.229752,284.228394 
	C240.337143,284.721802 232.278564,284.697968 224.242462,285.111511 
	C222.165604,285.218353 218.643570,286.406860 218.414276,287.602600 
	C217.806641,290.771301 216.378143,294.906982 220.986893,296.909912 
z"/>
<path fill="#76AD37" opacity="1.000000" stroke="none" 
	d="
M262.198242,214.468567 
	C262.864288,218.054642 265.100128,219.204590 269.100677,219.096680 
	C279.969269,218.803482 290.850861,218.992706 302.292603,219.215240 
	C302.888702,219.604813 302.919525,219.769821 302.950348,219.934830 
	C302.950348,219.934830 302.892975,220.000732 302.431152,219.985962 
	C292.844696,219.974213 283.719635,219.934784 274.595917,220.026093 
	C273.229553,220.039764 271.869324,220.666077 270.506256,221.008972 
	C270.506256,221.008972 270.536194,220.987259 270.130493,220.800354 
	C269.458344,220.769196 269.191925,220.924927 268.925507,221.080658 
	C268.925507,221.080658 268.976410,221.019516 268.861267,220.659515 
	C266.526825,220.119904 264.307526,219.940308 262.088196,219.760727 
	C262.094696,218.129288 262.101227,216.497833 262.198242,214.468567 
z"/>
<path fill="#E9B17F" opacity="1.000000" stroke="none" 
	d="
M240.554321,196.051697 
	C240.906387,195.694244 241.702423,195.018158 242.522400,194.987778 
	C248.932602,194.750107 248.882828,194.787766 248.961166,188.181213 
	C249.059219,179.913620 249.251999,171.647141 249.679199,163.034210 
	C249.954544,173.629059 249.954544,184.569885 249.954544,196.032211 
	C246.847488,196.032211 243.928436,196.032211 240.554321,196.051697 
z"/>
<path fill="#E2F1FF" opacity="1.000000" stroke="none" 
	d="
M347.872772,207.598053 
	C347.794708,208.036484 347.508331,207.973953 347.093567,207.613541 
	C332.114410,207.155029 317.549957,207.056931 302.985535,206.958832 
	C302.985535,206.958832 302.928345,206.868515 302.980042,206.686066 
	C303.031738,206.503616 303.008789,206.223663 303.008789,206.223663 
	C317.400238,206.163467 331.791718,206.090012 346.183167,206.090637 
	C346.772400,206.090652 347.361603,206.787445 347.872772,207.598053 
z"/>
<path fill="#E98640" opacity="1.000000" stroke="none" 
	d="
M143.857758,141.700439 
	C142.329208,142.023499 140.842987,141.950760 139.361115,142.002502 
	C137.065857,142.082657 132.920502,141.856079 132.796280,142.443680 
	C132.215454,145.191742 132.743362,148.174149 132.937897,151.466522 
	C132.543152,151.910385 132.085556,151.960541 131.282562,151.976440 
	C130.937164,151.942200 130.985062,151.988007 131.008118,152.011475 
	C130.569916,148.327042 130.108643,144.619141 129.539215,140.041748 
	C134.443161,140.041748 138.684830,140.041748 143.375580,140.019791 
	C143.850433,140.452042 143.876236,140.906235 143.857758,141.700439 
z"/>
<path fill="#D1E5B9" opacity="1.000000" stroke="none" 
	d="
M130.009552,274.672974 
	C129.999863,273.999420 129.991013,273.771851 129.923157,273.207214 
	C129.974838,272.579163 130.161469,272.350098 130.638977,272.117218 
	C130.910522,272.460266 130.967148,272.869019 131.052383,273.587677 
	C131.080978,277.355316 131.080978,280.813019 131.080978,285.080383 
	C135.571289,285.080383 139.820877,285.080383 144.535233,285.040192 
	C145.011169,289.306915 145.022339,293.613861 145.061951,298.371948 
	C144.549683,294.782684 144.008957,290.742218 143.409073,286.259583 
	C139.430634,286.259583 135.015381,286.259583 130.010391,286.259583 
	C130.010391,282.297821 130.010391,278.708405 130.009552,274.672974 
z"/>
<path fill="#D1E5B9" opacity="1.000000" stroke="none" 
	d="
M302.548279,206.133789 
	C303.008789,206.223663 303.031738,206.503616 302.976746,206.632721 
	C290.265045,206.827347 277.608368,206.892868 264.185120,206.993988 
	C263.013062,207.047897 262.607544,207.066208 262.202057,207.084534 
	C263.440948,206.723190 264.678223,206.054779 265.919006,206.048126 
	C277.974915,205.983368 290.031403,206.029434 302.548279,206.133789 
z"/>
<path fill="#6089C5" opacity="1.000000" stroke="none" 
	d="
M200.992233,309.734955 
	C200.322647,309.999329 199.664597,309.998566 199.006561,310.000458 
	C189.203491,310.028625 189.203491,310.028717 188.981369,320.536560 
	C188.505295,320.952179 188.051575,320.960815 187.258820,320.943176 
	C187.237213,309.160706 187.237213,309.160736 199.070221,308.983521 
	C199.400131,308.978577 199.730026,308.972595 200.522858,308.955139 
	C200.991776,309.119171 200.997787,309.295135 200.992233,309.734955 
z"/>
<path fill="#E2F1FF" opacity="1.000000" stroke="none" 
	d="
M322.852966,173.609009 
	C323.002228,174.029099 322.510193,174.045456 321.859406,174.038483 
	C320.110199,174.058441 319.011810,174.085388 317.450684,174.087250 
	C307.332977,174.096466 297.677979,174.130768 288.022980,174.165054 
	C287.852509,174.135422 287.682037,174.105789 287.256012,174.030701 
	C287.639221,173.655640 288.278076,173.038864 288.916687,173.039154 
	C300.179047,173.044357 311.441376,173.124756 322.852966,173.609009 
z"/>
<path fill="#D1E5B9" opacity="1.000000" stroke="none" 
	d="
M270.751038,221.303833 
	C271.869324,220.666077 273.229553,220.039764 274.595917,220.026093 
	C283.719635,219.934784 292.844696,219.974213 302.420319,220.028290 
	C302.871338,220.085388 302.941498,220.468964 302.959961,220.662994 
	C293.203552,220.921158 283.428558,220.971588 273.654114,221.072540 
	C272.766296,221.081711 271.881805,221.415604 270.751038,221.303833 
z"/>
<path fill="#E2F1FF" opacity="1.000000" stroke="none" 
	d="
M214.415924,251.924164 
	C214.447922,248.212708 214.920013,244.573105 215.409698,240.797806 
	C210.879608,240.273865 207.002106,240.390564 203.683777,239.085480 
	C202.730484,238.710587 203.391266,234.231674 203.646057,231.424850 
	C203.980103,233.650162 203.980103,236.085083 203.980103,238.833740 
	C207.959030,238.833740 211.682846,238.833740 216.478058,238.833740 
	C215.905197,243.482239 215.380600,247.739105 214.415924,251.924164 
z"/>
<path fill="#E2F1FF" opacity="1.000000" stroke="none" 
	d="
M249.823944,160.819672 
	C238.927933,161.203644 228.015732,161.122086 216.650452,161.083862 
	C216.571030,160.754044 216.946396,160.053406 217.318100,160.055359 
	C228.148209,160.111969 238.977951,160.238693 249.823944,160.819672 
z"/>
<path fill="#6089C5" opacity="1.000000" stroke="none" 
	d="
M191.421631,320.897217 
	C191.567856,320.557220 192.141891,320.128357 192.753601,320.065369 
	C201.024872,319.213440 201.026169,319.226044 201.000275,310.474701 
	C201.472214,310.019318 201.943558,310.019348 202.768555,310.030365 
	C203.122177,313.644867 203.122177,317.248352 203.122177,320.978485 
	C198.929626,320.978485 195.398285,320.978485 191.421631,320.897217 
z"/>
<path fill="#BEAFE7" opacity="1.000000" stroke="none" 
	d="
M329.583618,127.787422 
	C329.135437,127.697609 329.036591,127.468170 329.031189,127.343376 
	C338.528900,127.204422 348.032074,127.190262 357.641327,127.595947 
	C348.508911,127.969597 339.270355,127.923416 329.583618,127.787422 
z"/>
<path fill="#E9B17F" opacity="1.000000" stroke="none" 
	d="
M217.431931,221.069427 
	C217.529205,220.727554 218.013596,220.145248 218.571976,220.062576 
	C225.952988,218.969559 225.887222,218.985779 226.032379,211.520447 
	C226.060638,210.066544 226.849838,208.627426 227.697449,207.140015 
	C227.581833,211.461655 227.056824,215.824738 226.426743,221.061203 
	C223.926361,221.061203 220.889893,221.061203 217.431931,221.069427 
z"/>
<path fill="#6089C5" opacity="1.000000" stroke="none" 
	d="
M317.685059,177.208160 
	C318.302032,177.568512 318.963318,178.174744 318.886383,178.665100 
	C318.074646,183.837524 320.848450,185.400894 325.673767,185.533386 
	C323.468323,185.807968 320.959229,185.855301 318.113953,185.565750 
	C317.476868,184.835098 317.175934,184.441330 316.875031,184.047546 
	C316.920166,183.877853 316.965271,183.708176 317.226013,183.126343 
	C317.305695,182.129990 317.169708,181.545761 317.033752,180.961533 
	C317.151398,179.774445 317.269012,178.587341 317.685059,177.208160 
z"/>
<path fill="#D1E5B9" opacity="1.000000" stroke="none" 
	d="
M156.743210,196.200592 
	C157.031281,203.084824 156.870529,209.974182 156.370941,217.189606 
	C156.119522,210.412354 156.206970,203.309021 156.743210,196.200592 
z"/>
<path fill="#9077CF" opacity="1.000000" stroke="none" 
	d="
M381.810059,252.505829 
	C380.517914,248.840820 378.711090,244.744049 381.503052,240.279465 
	C381.773438,244.059921 381.834717,248.056625 381.810059,252.505829 
z"/>
<path fill="#E98640" opacity="1.000000" stroke="none" 
	d="
M141.358459,151.900665 
	C141.819916,150.373459 142.633133,148.912292 143.678101,147.236267 
	C143.917755,148.414352 143.925659,149.807297 143.891479,151.613785 
	C143.136353,152.007111 142.423279,151.986893 141.358459,151.900665 
z"/>
<path fill="#76AD37" opacity="1.000000" stroke="none" 
	d="
M262.058319,207.342316 
	C262.607544,207.066208 263.013062,207.047897 263.722351,207.061722 
	C263.504486,208.613480 262.982849,210.133072 262.196594,211.871155 
	C261.926208,210.593124 261.920410,209.096619 262.058319,207.342316 
z"/>
<path fill="#D1E5B9" opacity="1.000000" stroke="none" 
	d="
M261.738281,219.952026 
	C264.307526,219.940308 266.526825,220.119904 268.865906,220.699020 
	C266.453217,220.780136 263.920776,220.461746 261.738281,219.952026 
z"/>
<path fill="#9077CF" opacity="1.000000" stroke="none" 
	d="
M379.373108,273.897339 
	C379.713409,272.913605 380.430298,271.998810 381.458435,271.041412 
	C381.096375,271.987976 380.423004,272.977142 379.373108,273.897339 
z"/>
<path fill="#76AD37" opacity="1.000000" stroke="none" 
	d="
M316.625336,184.151459 
	C317.175934,184.441330 317.476868,184.835098 317.748871,185.494598 
	C316.746948,185.789062 315.773926,185.817825 314.439301,185.756958 
	C314.843689,185.196686 315.609680,184.726028 316.625336,184.151459 
z"/>
<path fill="#6089C5" opacity="1.000000" stroke="none" 
	d="
M347.890503,176.655273 
	C347.195923,176.324234 346.581421,175.626831 345.951050,174.613068 
	C346.613617,174.960770 347.292084,175.624847 347.890503,176.655273 
z"/>
<path fill="#76AD37" opacity="1.000000" stroke="none" 
	d="
M292.493134,185.736908 
	C293.526489,185.526138 294.953064,185.401932 296.635803,185.466980 
	C295.556763,185.711960 294.221588,185.767715 292.493134,185.736908 
z"/>
<path fill="#9077CF" opacity="1.000000" stroke="none" 
	d="
M381.832458,263.638672 
	C381.620148,263.136383 381.493683,262.270508 381.562378,261.227936 
	C381.811157,261.792511 381.864746,262.533783 381.832458,263.638672 
z"/>
<path fill="#E9B17F" opacity="1.000000" stroke="none" 
	d="
M216.947540,222.782959 
	C216.735489,222.400009 216.630173,221.690857 216.827530,221.035767 
	C217.104904,221.545471 217.079590,222.001114 216.947540,222.782959 
z"/>
<path fill="#E98640" opacity="1.000000" stroke="none" 
	d="
M174.583786,207.122620 
	C173.781647,207.280350 172.590973,207.356552 171.214294,207.165863 
	C172.083954,206.946320 173.139603,206.993683 174.583786,207.122620 
z"/>
<path fill="#9077CF" opacity="1.000000" stroke="none" 
	d="
M381.850647,255.749420 
	C381.399780,255.833069 381.028198,255.667908 380.656586,255.502731 
	C380.881256,255.348892 381.105957,255.195038 381.551422,255.021942 
	C381.824799,255.168686 381.877350,255.334641 381.850647,255.749420 
z"/>
<path fill="#76AD37" opacity="1.000000" stroke="none" 
	d="
M274.668762,174.225159 
	C274.538269,174.522797 274.132050,174.749985 273.486084,174.998535 
	C273.628571,174.731491 274.010803,174.443100 274.668762,174.225159 
z"/>
<path fill="#76AD37" opacity="1.000000" stroke="none" 
	d="
M299.375336,185.750366 
	C299.583435,185.560410 300.096069,185.455002 300.764160,185.505386 
	C300.506378,185.719101 300.093109,185.777008 299.375336,185.750366 
z"/>
<path fill="#76AD37" opacity="1.000000" stroke="none" 
	d="
M283.739563,174.193237 
	C283.976257,174.248154 283.655823,174.556915 283.655823,174.556915 
	C283.655823,174.556915 283.235504,174.514084 283.136963,174.397629 
	C283.038391,174.281174 283.502869,174.138306 283.739563,174.193237 
z"/>
<path fill="#6089C5" opacity="1.000000" stroke="none" 
	d="
M347.171783,297.846069 
	C346.904785,297.799469 346.839996,297.440277 346.836975,297.257812 
	C347.149384,297.077820 347.431030,297.176514 347.817200,297.550049 
	C347.783234,297.783356 347.610992,297.838043 347.171783,297.846069 
z"/>
<path fill="#76AD37" opacity="1.000000" stroke="none" 
	d="
M274.164886,186.175568 
	C274.136475,185.970428 274.480591,185.968430 274.652344,185.963608 
	C274.613831,186.099411 274.403564,186.240051 274.164886,186.175568 
z"/>
<path fill="#E9B17F" opacity="1.000000" stroke="none" 
	d="
M165.991470,309.899719 
	C165.973694,310.198486 165.577148,309.981995 165.358795,309.922485 
	C165.108627,309.671875 165.076797,309.480835 165.131500,309.010101 
	C165.218018,308.730408 165.592224,308.850555 165.772339,308.927795 
	C165.971390,309.203674 165.990326,309.402313 165.991470,309.899719 
z"/>
<path fill="#6089C5" opacity="1.000000" stroke="none" 
	d="
M347.233276,185.783051 
	C347.075165,185.480759 347.232788,185.283691 347.634460,185.062195 
	C347.699768,185.266113 347.589935,185.549622 347.233276,185.783051 
z"/>
<path fill="#76AD37" opacity="1.000000" stroke="none" 
	d="
M277.262024,185.793076 
	C277.208740,185.421753 277.454987,185.335709 277.863220,185.599182 
	C277.960693,185.715393 277.497040,185.845032 277.262024,185.793076 
z"/>
<path fill="#D1E5B9" opacity="1.000000" stroke="none" 
	d="
M155.759460,217.704010 
	C156.172623,217.815338 156.301193,218.157898 156.235611,219.013977 
	C155.852570,218.996750 155.663712,218.466003 155.759460,217.704010 
z"/>
<path fill="#D1E5B9" opacity="1.000000" stroke="none" 
	d="
M156.004547,219.855194 
	C156.344894,219.700607 156.670731,219.940918 157.093918,220.491089 
	C156.790863,220.617325 156.390442,220.433701 156.004547,219.855194 
z"/>
<path fill="#D1E5B9" opacity="1.000000" stroke="none" 
	d="
M269.003601,221.386932 
	C269.191925,220.924927 269.458344,220.769196 270.142090,220.814789 
	C270.066803,221.241791 269.574249,221.467484 269.003601,221.386932 
z"/>
<path fill="#76AD37" opacity="1.000000" stroke="none" 
	d="
M277.730103,174.226227 
	C277.960571,174.298401 277.620209,174.578766 277.620209,174.578766 
	C277.620209,174.578766 277.208221,174.497452 277.117554,174.375427 
	C277.026917,174.253403 277.499603,174.154053 277.730103,174.226227 
z"/>
<path fill="#9077CF" opacity="1.000000" stroke="none" 
	d="
M381.823914,258.735535 
	C381.419525,258.784790 381.336060,258.535461 381.624329,258.128723 
	C381.749023,258.036987 381.897766,258.502594 381.823914,258.735535 
z"/>
<path fill="#76AD37" opacity="1.000000" stroke="none" 
	d="
M303.278656,185.704788 
	C303.245392,185.371475 303.477753,185.305023 303.847870,185.542816 
	C303.940002,185.645126 303.498596,185.769730 303.278656,185.704788 
z"/>
<path fill="#76AD37" opacity="1.000000" stroke="none" 
	d="
M280.735596,174.218826 
	C280.968536,174.271820 280.652374,174.569077 280.652374,174.569077 
	C280.652374,174.569077 280.241638,174.529144 280.143707,174.417389 
	C280.045776,174.305618 280.502625,174.165833 280.735596,174.218826 
z"/>
<path fill="#000000" opacity="1.000000" stroke="none" 
	d="
M193.009216,196.592804 
	C196.141083,196.146469 199.267700,196.146469 202.453766,196.146469 
	C203.006027,191.878021 203.519562,187.908752 204.476883,183.471375 
	C208.566086,183.282852 212.211502,183.562454 215.856934,183.842072 
	C216.451859,180.486206 217.046783,177.130341 217.770645,173.047195 
	C223.115692,173.047195 229.041702,173.047195 235.428192,173.084045 
	C235.888672,173.120895 235.918701,173.048813 235.928619,173.376862 
	C236.007721,174.151581 236.076920,174.598221 236.146118,175.044876 
	C236.146118,177.509308 236.146118,179.973724 236.146118,182.533981 
	C232.628189,183.190765 229.493439,183.776016 225.806519,184.464355 
	C225.806519,187.771820 226.986053,191.860870 225.455032,194.079147 
	C224.086716,196.061691 219.727356,195.979874 216.092621,196.971283 
	C216.092621,199.465485 216.092621,202.530899 216.092621,205.719406 
	C213.874542,205.960083 212.071808,205.966949 210.364029,206.373077 
	C202.232025,208.307007 202.243805,208.345734 201.986282,217.013489 
	C201.972183,217.488312 201.857407,217.960159 201.705780,219.016891 
	C199.145370,219.016891 196.549744,219.016891 193.504593,219.073303 
	C191.227753,219.080414 189.400711,219.013885 187.573074,218.986923 
	C185.928940,218.962662 184.284164,218.981812 181.953186,218.981812 
	C181.953186,216.980713 181.953171,215.220383 181.953171,213.460052 
	C181.953171,211.632019 181.953186,209.804001 181.953186,208.011475 
	C182.315689,207.819611 182.573608,207.560837 182.823349,207.568497 
	C192.971451,207.880447 192.971359,207.883514 193.009216,196.592804 
z"/>
<path fill="#E9B17F" opacity="1.000000" stroke="none" 
	d="
M236.369598,174.869705 
	C236.076920,174.598221 236.007721,174.151581 235.890839,173.366989 
	C236.093140,173.584213 236.343109,174.139374 236.369598,174.869705 
z"/>
<path fill="#F5B72A" opacity="1.000000" stroke="none" 
	d="
M259.922302,137.796570 
	C255.711746,138.503601 251.581650,138.913574 247.449066,138.940247 
	C236.294022,139.012299 225.137924,138.921127 213.481445,138.562622 
	C211.468521,134.572296 213.808548,132.323959 216.039764,130.155884 
	C216.183777,130.340622 216.275024,130.385925 216.366257,130.431244 
	C216.249435,130.283325 216.132614,130.135391 216.019012,129.760559 
	C216.022247,129.533646 216.005722,129.080063 216.005722,129.080063 
	C230.376144,128.756744 244.746582,128.433426 259.590576,128.151794 
	C260.043335,131.237228 260.022491,134.280960 259.922302,137.796570 
M214.400299,135.484039 
	C214.400299,135.484039 214.520035,135.409958 214.400299,135.484039 
z"/>
<path fill="#987DD1" opacity="1.000000" stroke="none" 
	d="
M380.257568,233.524750 
	C379.409485,233.359497 378.799896,232.991318 378.190308,232.623138 
	C378.588104,232.221848 378.985870,231.820557 379.383636,231.419250 
	C379.754456,232.053436 380.125275,232.687622 380.257568,233.524750 
z"/>
<path fill="#987DD1" opacity="1.000000" stroke="none" 
	d="
M376.473389,234.459473 
	C376.520874,234.433197 376.425903,234.485733 376.473389,234.459473 
z"/>
<path fill="#5C90E1" opacity="1.000000" stroke="none" 
	d="
M295.082947,241.300598 
	C310.824249,240.861526 326.457489,241.051392 342.083893,240.807098 
	C346.613220,240.736282 347.223145,242.637863 347.182770,246.429535 
	C347.144257,250.045547 346.968292,252.223434 342.248627,252.130814 
	C326.791656,251.827469 311.325195,252.006424 295.385193,251.975128 
	C294.929413,248.554932 294.950836,245.159546 295.082947,241.300598 
z"/>
<path fill="#E9B17F" opacity="1.000000" stroke="none" 
	d="
M167.750839,308.941559 
	C167.748672,309.109985 167.476379,309.157440 167.346283,309.119080 
	C167.216171,309.080750 167.367447,308.651123 167.367447,308.651123 
	C167.367447,308.651123 167.753006,308.773132 167.750839,308.941559 
z"/>
<path fill="#6089C5" opacity="1.000000" stroke="none" 
	d="
M303.420898,219.978699 
	C302.919525,219.769821 302.888702,219.604813 302.737213,219.217926 
	C302.735870,217.935196 302.855194,216.874329 303.056580,215.421692 
	C303.998871,218.114029 305.792145,219.168259 309.187134,219.090683 
	C321.596008,218.807251 334.014587,218.947647 346.811554,218.975479 
	C345.500031,219.365265 343.808105,219.994949 342.112579,220.004883 
	C329.372589,220.079468 316.631927,220.031906 303.420898,219.978699 
z"/>
<path fill="#6089C5" opacity="1.000000" stroke="none" 
	d="
M302.945679,207.388855 
	C317.549957,207.056931 332.114410,207.155029 346.947021,207.611572 
	C334.449982,207.975220 321.681793,208.132385 308.921295,207.888306 
	C305.328461,207.819595 303.721283,208.934326 303.357758,212.683655 
	C303.038269,211.250565 302.972046,209.534714 302.945679,207.388855 
z"/>
<path fill="#76AD37" opacity="1.000000" stroke="none" 
	d="
M288.347778,174.417938 
	C297.677979,174.130768 307.332977,174.096466 317.523499,174.353180 
	C318.148254,174.804703 318.237488,174.965225 318.326721,175.125732 
	C318.326721,175.125732 317.901459,175.021484 317.683411,174.979706 
	C307.867767,174.848892 298.270172,174.759857 288.347778,174.417938 
z"/>
<path fill="#76AD37" opacity="1.000000" stroke="none" 
	d="
M317.018860,181.303162 
	C317.169708,181.545761 317.305695,182.129990 317.230469,182.863007 
	C317.014160,182.556137 317.009094,182.100464 317.018860,181.303162 
z"/>
<path fill="#F37B32" opacity="1.000000" stroke="none" 
	d="
M215.986984,130.016479 
	C213.808548,132.323959 211.468521,134.572296 213.017883,138.524536 
	C190.626511,138.818527 168.197876,138.818527 145.418579,138.818527 
	C145.418579,135.214966 145.418579,131.989136 145.418579,128.310913 
	C147.188507,128.211273 148.792206,128.044098 150.396057,128.042374 
	C170.040649,128.021164 189.685318,127.998688 209.329727,128.060730 
	C211.279053,128.066879 213.226654,128.627350 215.590393,129.005310 
	C216.005722,129.080063 216.022247,129.533646 216.011108,129.766998 
	C215.999954,130.000366 215.986984,130.016479 215.986984,130.016479 
z"/>
<path fill="#E98640" opacity="1.000000" stroke="none" 
	d="
M143.897141,144.746368 
	C143.517319,144.808472 143.420517,144.547729 143.717819,144.110245 
	C143.847031,144.009674 143.915268,144.499680 143.897141,144.746368 
z"/>
<path fill="#5991EA" opacity="1.000000" stroke="none" 
	d="
M294.879791,296.098541 
	C290.208374,296.414795 285.536926,296.731049 280.168945,296.706940 
	C275.738922,294.387939 276.499542,290.732147 277.456848,288.094482 
	C278.016266,286.553040 281.174164,285.528381 283.329590,285.089874 
	C286.788849,284.386078 290.386230,284.361023 293.925232,284.049133 
	C296.722321,284.038727 299.519379,284.028290 303.010803,284.326660 
	C307.426514,284.456635 311.147858,284.277771 314.869232,284.098877 
	C316.332428,284.078766 317.795593,284.058685 319.904175,284.324585 
	C329.358856,284.741211 338.168121,284.871826 346.977386,285.002441 
	C346.990112,288.349426 347.002838,291.696381 346.533569,295.514221 
	C328.994293,296.022888 311.937042,296.060699 294.879791,296.098541 
z"/>
<path fill="#6089C5" opacity="1.000000" stroke="none" 
	d="
M295.168060,296.418274 
	C311.937042,296.060699 328.994293,296.022888 346.518494,295.969116 
	C346.981445,296.156769 346.977478,296.360382 346.926392,296.867218 
	C331.556854,297.143555 316.234436,297.128052 300.912140,297.074677 
	C299.093170,297.068329 297.274902,296.855255 295.168060,296.418274 
z"/>
<path fill="#6089C5" opacity="1.000000" stroke="none" 
	d="
M346.995056,284.777649 
	C338.168121,284.871826 329.358856,284.741211 320.341919,284.362061 
	C328.786072,284.083069 337.437866,284.052673 346.561462,284.062256 
	C347.033264,284.102234 347.012726,284.552795 346.995056,284.777649 
z"/>
<path fill="#6089C5" opacity="1.000000" stroke="none" 
	d="
M318.652161,175.101837 
	C318.237488,174.965225 318.148254,174.804703 317.986206,174.378265 
	C319.011810,174.085388 320.110199,174.058441 321.618591,174.089386 
	C321.011597,174.457520 319.994598,174.767731 318.652161,175.101837 
z"/>
<path fill="#9077CF" opacity="1.000000" stroke="none" 
	d="
M373.403748,251.918152 
	C373.047516,250.926544 373.022308,249.870605 372.973572,248.419373 
	C373.617462,248.167374 374.284882,248.310684 374.952332,248.453979 
	C374.546448,249.587265 374.140594,250.720535 373.403748,251.918152 
z"/>
<path fill="#F5B72A" opacity="1.000000" stroke="none" 
	d="
M215.881348,183.391968 
	C212.211502,183.562454 208.566086,183.282852 204.490753,183.047821 
	C203.687408,181.173553 203.197525,179.268494 202.967941,177.332581 
	C202.626968,174.457352 203.900269,173.194183 206.929871,173.024689 
	C216.244492,172.503540 216.238892,172.403427 215.881348,183.391968 
z"/>
<path fill="#71B12E" opacity="1.000000" stroke="none" 
	d="
M221.325256,296.949341 
	C216.378143,294.906982 217.806641,290.771301 218.414276,287.602600 
	C218.643570,286.406860 222.165604,285.218353 224.242462,285.111511 
	C232.278564,284.697968 240.337143,284.721802 248.693848,284.301147 
	C249.449646,284.002472 249.898941,283.985352 250.822449,284.237488 
	C251.592270,284.650696 251.887863,284.794678 252.183472,284.938660 
	C259.301666,284.674896 266.419891,284.411163 273.963806,284.394897 
	C274.550446,288.106140 274.711365,291.569855 274.503052,295.203735 
	C272.336670,295.583130 270.540131,295.967163 268.742218,295.973907 
	C255.252579,296.024414 241.762497,295.967987 228.273056,296.039581 
	C226.520752,296.048889 224.771332,296.597900 223.020569,296.896973 
	C222.568253,296.927582 222.115952,296.958191 221.325256,296.949341 
z"/>
<path fill="#6089C5" opacity="1.000000" stroke="none" 
	d="
M274.872284,295.033600 
	C274.711365,291.569855 274.550446,288.106140 274.293579,284.328125 
	C274.610962,283.951599 275.024323,283.889282 275.748474,283.766632 
	C281.708618,283.800690 287.357971,283.895081 293.466278,284.019287 
	C290.386230,284.361023 286.788849,284.386078 283.329590,285.089874 
	C281.174164,285.528381 278.016266,286.553040 277.456848,288.094482 
	C276.499542,290.732147 275.738922,294.387939 279.707886,296.634583 
	C278.616608,296.991943 277.289795,297.081329 275.574310,297.227234 
	C275.185608,297.283783 275.098816,297.081757 275.083801,296.677490 
	C275.003296,295.860016 274.937805,295.446808 274.872284,295.033600 
z"/>
<path fill="#76AD37" opacity="1.000000" stroke="none" 
	d="
M252.061584,284.703674 
	C251.887863,284.794678 251.592270,284.650696 251.155106,284.301025 
	C251.322266,284.219757 251.630981,284.344208 252.061584,284.703674 
z"/>
<path fill="#6089C5" opacity="1.000000" stroke="none" 
	d="
M314.423889,284.058380 
	C311.147858,284.277771 307.426514,284.456635 303.421021,284.366974 
	C306.750793,284.071594 310.364655,284.044739 314.423889,284.058380 
z"/>
<path fill="#76AD37" opacity="1.000000" stroke="none" 
	d="
M274.503052,295.203735 
	C274.937805,295.446808 275.003296,295.860016 275.023132,296.585815 
	C257.966980,296.944061 240.956436,296.989716 223.483231,296.966156 
	C224.771332,296.597900 226.520752,296.048889 228.273056,296.039581 
	C241.762497,295.967987 255.252579,296.024414 268.742218,295.973907 
	C270.540131,295.967163 272.336670,295.583130 274.503052,295.203735 
z"/>
<path fill="#F37B32" opacity="1.000000" stroke="none" 
	d="
M214.460175,135.446991 
	C214.520035,135.409958 214.400299,135.484039 214.460175,135.446991 
z"/>
<path fill="#F37B32" opacity="1.000000" stroke="none" 
	d="
M216.007874,129.993927 
	C216.132614,130.135391 216.249435,130.283325 216.366257,130.431244 
	C216.275024,130.385925 216.183777,130.340622 216.039764,130.155884 
	C215.986984,130.016479 215.999954,130.000366 216.007874,129.993927 
z"/>
</svg>